<?xml version="1.0" encoding="utf-8"?>
<!-- Generator: Adobe Illustrator 16.0.4, SVG Export Plug-In . SVG Version: 6.00 Build 0)  -->
<!DOCTYPE svg PUBLIC "-//W3C//DTD SVG 1.1//EN" "http://www.w3.org/Graphics/SVG/1.1/DTD/svg11.dtd">
<svg version="1.1" id="Calque_1" xmlns="http://www.w3.org/2000/svg" xmlns:xlink="http://www.w3.org/1999/xlink" x="0px" y="0px"
     width="335px" height="340px" viewBox="0 0 335 340" enable-background="new 0 0 335 340" xml:space="preserve">
<g>
    <path fill="#4EA3DB" d="M127.719,217.785H66.209v-61.509h61.509V217.785z M74.3,209.694h45.328v-45.328H74.3V209.694z"/>
    <rect x="81.97" y="173.096" fill="#4EA3DB" width="6.068" height="27.681"/>
    <rect x="93.933" y="173.096" fill="#4EA3DB" width="6.065" height="27.681"/>
    <rect x="105.657" y="173.19" fill="#4EA3DB" width="6.068" height="27.681"/>
</g>
<g>
    <path fill="#4EA3DB" d="M196.387,217.785h-61.509v-61.509h61.509V217.785z M142.968,209.694h45.328v-45.328h-45.328V209.694z"/>
    <rect x="150.635" y="173.096" fill="#4EA3DB" width="6.068" height="27.681"/>
    <rect x="162.598" y="173.096" fill="#4EA3DB" width="6.065" height="27.681"/>
    <rect x="174.325" y="173.19" fill="#4EA3DB" width="6.067" height="27.681"/>
</g>
<g>
    <path fill="#4EA3DB" d="M264.254,217.785h-61.507v-61.509h61.507V217.785z M210.835,209.694h45.328v-45.328h-45.328V209.694z"/>
    <rect x="218.505" y="173.096" fill="#4EA3DB" width="6.068" height="27.681"/>
    <rect x="230.465" y="173.096" fill="#4EA3DB" width="6.068" height="27.681"/>
    <rect x="242.192" y="173.19" fill="#4EA3DB" width="6.067" height="27.681"/>
</g>
<g>
    <path fill="#4EA3DB" d="M196.387,151.042h-61.509V89.534h61.509V151.042z M142.968,142.952h45.328V97.625h-45.328V142.952z"/>
    <rect x="150.635" y="106.354" fill="#4EA3DB" width="6.068" height="27.681"/>
    <rect x="162.598" y="106.354" fill="#4EA3DB" width="6.065" height="27.681"/>
    <rect x="174.325" y="106.449" fill="#4EA3DB" width="6.067" height="27.681"/>
</g>
<g>
    <path fill="#4EA3DB" d="M264.254,151.042h-61.507V89.534h61.507V151.042z M210.835,142.952h45.328V97.625h-45.328V142.952z"/>
    <rect x="218.505" y="106.354" fill="#4EA3DB" width="6.068" height="27.681"/>
    <rect x="230.465" y="106.354" fill="#4EA3DB" width="6.068" height="27.681"/>
    <rect x="242.192" y="106.449" fill="#4EA3DB" width="6.067" height="27.681"/>
</g>
<path fill="#222F5D" d="M277.37,82.461h-83.705l26.295-23.022l-30.053-22.175h87.463V82.461z M215.185,74.372h54.095V45.354h-54.782
    l18.36,13.546L215.185,74.372z"/>
<g>
    <path fill="#222F5D" d="M179.941,307.745c-33.033,0-63.026-19.758-76.245-49.691c-7.466,4.853-16.241,7.479-25.215,7.479
        c-25.507,0-46.26-20.752-46.26-46.257c0-2.145,0.159-4.332,0.466-6.508l0.497-3.472H294.25v4.045
        c0,19.136-15.423,34.74-34.49,35.039C249.26,283.496,216.897,307.745,179.941,307.745z M107.316,244.921l1.977,5.395
        c10.815,29.513,39.206,49.342,70.648,49.342c34.354,0,64.313-23.206,72.855-56.433l0.844-3.295l3.392,0.27
        c0.719,0.057,1.44,0.094,2.174,0.094c13.487,0,24.694-9.957,26.652-22.908H40.361c-0.034,0.633-0.048,1.264-0.048,1.892
        c0,21.045,17.125,38.167,38.169,38.167c8.912,0,17.585-3.14,24.423-8.841L107.316,244.921z"/>
</g>
<rect x="269.279" y="41.31" fill="#222F5D" width="8.091" height="175.583"/>
</svg>
